<?xml version="1.0" standalone="no"?>
<!DOCTYPE svg PUBLIC "-//W3C//DTD SVG 20010904//EN"
 "http://www.w3.org/TR/2001/REC-SVG-20010904/DTD/svg10.dtd">
<svg version="1.0" xmlns="http://www.w3.org/2000/svg"
 width="132.000000pt" height="102.000000pt" viewBox="0 0 132.000000 102.000000"
 preserveAspectRatio="xMidYMid meet">
<metadata>
Created by potrace 1.10, written by Peter Selinger 2001-2011
</metadata>
<g transform="translate(0.000000,102.000000) scale(0.100000,-0.100000)"
fill="#ffffff" stroke="none">
<path d="M654 735 c-11 -28 7 -35 90 -35 67 0 91 -4 132 -25 56 -28 197 -152
188 -166 -3 -5 -75 -9 -160 -9 l-155 0 -48 45 c-26 25 -55 45 -65 45 -47 0 14
-95 86 -131 35 -18 58 -20 213 -19 96 1 179 -1 185 -5 11 -7 14 -97 4 -108 -4
-3 -19 7 -34 23 -24 26 -35 30 -78 30 -44 0 -54 -4 -76 -31 -48 -56 -46 -110
4 -160 23 -23 37 -29 74 -29 53 0 76 18 130 99 33 48 36 60 36 122 0 92 -14
122 -91 194 -166 154 -204 174 -337 175 -72 0 -94 -3 -98 -15z m394 -421 c31
-22 30 -69 -3 -90 -21 -14 -30 -14 -55 -4 -44 18 -51 57 -16 87 32 27 44 28
74 7z"/>
<path d="M1000 275 c0 -8 7 -15 15 -15 8 0 15 7 15 15 0 8 -7 15 -15 15 -8 0
-15 -7 -15 -15z"/>
<path d="M553 493 c-17 -6 -17 -40 0 -46 20 -8 39 8 35 28 -3 20 -16 26 -35
18z"/>
<path d="M404 405 c-10 -57 1 -112 33 -151 70 -87 79 -94 128 -94 43 0 51 4
89 46 l42 45 62 -3 c47 -2 65 1 72 12 17 27 -9 40 -79 40 -65 0 -66 0 -102 41
-31 37 -40 41 -77 41 -29 -1 -52 -9 -75 -26 -19 -14 -37 -26 -40 -26 -3 0 -7
24 -9 52 -2 40 -7 54 -20 56 -12 2 -19 -6 -24 -33z m190 -85 c22 -8 26 -16 26
-49 0 -41 -18 -61 -55 -61 -18 0 -65 43 -65 60 0 14 46 60 59 60 5 0 21 -4 35
-10z"/>
<path d="M556 281 c-3 -5 0 -14 8 -20 10 -9 15 -8 19 3 9 22 -15 37 -27 17z"/>
</g>
</svg>
