<?xml version="1.0" standalone="no"?>
<!DOCTYPE svg PUBLIC "-//W3C//DTD SVG 20010904//EN"
 "http://www.w3.org/TR/2001/REC-SVG-20010904/DTD/svg10.dtd">
<svg version="1.0" xmlns="http://www.w3.org/2000/svg"
 width="360.000000pt" height="336.000000pt" viewBox="0 0 360.000000 336.000000"
 preserveAspectRatio="xMidYMid meet">
<metadata>
Created by potrace 1.10, written by Peter Selinger 2001-2011
</metadata>
<g transform="translate(0.000000,336.000000) scale(0.100000,-0.100000)"
fill="#e30025" stroke="none">
<path d="M0 1680 l0 -1680 1800 0 1800 0 0 1680 0 1680 -1800 0 -1800 0 0
-1680z m1918 1284 c18 -5 22 -13 22 -44 0 -34 -24 -96 -42 -110 -4 -3 -12 -17
-18 -30 -5 -14 -19 -38 -30 -55 -10 -16 -29 -50 -42 -75 -13 -25 -26 -47 -30
-50 -4 -3 -12 -17 -18 -30 -5 -14 -24 -47 -41 -75 -17 -27 -35 -62 -42 -77 -6
-16 -15 -28 -18 -28 -4 0 -18 -21 -31 -47 -13 -27 -25 -50 -28 -53 -3 -3 -11
-16 -18 -30 -7 -14 -21 -38 -31 -55 -19 -29 -38 -63 -77 -134 -39 -72 -29 -69
-250 -73 l-202 -3 -21 25 c-11 14 -20 33 -21 42 0 9 -6 21 -12 25 -35 22 -68
153 -39 153 5 0 14 12 20 28 12 28 46 89 90 157 27 42 38 61 78 135 13 25 32
59 43 75 19 31 44 74 76 135 11 19 22 37 25 40 3 3 12 17 20 32 8 14 25 47 38
72 13 25 31 47 40 49 25 7 533 7 559 1z m361 -24 c11 -14 20 -30 21 -37 0 -6
6 -18 13 -25 7 -7 18 -24 24 -38 7 -14 26 -47 42 -75 17 -27 36 -61 41 -75 6
-13 15 -27 19 -30 4 -3 18 -25 31 -50 33 -64 48 -91 71 -125 11 -16 25 -42 31
-57 7 -16 16 -28 20 -28 4 0 8 -6 8 -14 0 -7 7 -19 15 -26 8 -7 15 -21 15 -31
0 -10 6 -22 13 -26 37 -24 65 -151 36 -168 -5 -4 -15 -17 -20 -28 -5 -12 -18
-35 -28 -52 -20 -31 -44 -72 -77 -135 -11 -19 -22 -37 -26 -40 -4 -3 -12 -17
-18 -30 -14 -33 -61 -113 -79 -134 -17 -21 -58 -21 -79 0 -17 18 -54 80 -77
132 -9 17 -20 32 -25 32 -6 0 -10 7 -10 14 0 8 -12 34 -27 58 -48 75 -53 82
-64 108 -5 13 -13 27 -17 30 -4 3 -15 21 -26 40 -33 62 -57 104 -76 135 -11
17 -29 49 -41 72 -11 23 -27 47 -35 54 -8 6 -14 20 -14 30 0 10 -6 22 -12 26
-13 8 -28 33 -74 124 -20 40 -22 50 -12 82 6 20 15 37 19 37 4 0 12 12 18 28
6 15 25 50 41 77 17 28 36 61 43 75 6 14 17 31 24 38 7 7 13 20 13 28 0 25 41
34 151 31 100 -2 108 -4 128 -27z m-102 -1000 c16 -17 40 -51 52 -75 12 -25
27 -45 32 -45 5 0 9 -9 9 -19 0 -11 5 -23 11 -26 5 -4 15 -17 20 -28 15 -34
36 -68 48 -80 22 -22 12 -87 -19 -134 -16 -24 -30 -49 -30 -54 0 -6 -16 -26
-36 -45 l-37 -34 -423 0 -423 0 -36 37 c-19 20 -35 42 -35 49 0 7 -6 19 -13
26 -7 7 -18 24 -24 38 -7 14 -26 48 -43 75 -16 28 -35 62 -41 78 -6 15 -15 27
-19 27 -4 0 -13 12 -19 28 -5 15 -24 51 -41 81 -34 58 -33 84 4 113 19 16 63
18 527 18 l507 0 29 -30z m587 -714 c51 -18 102 -68 110 -107 7 -39 6 -106 -2
-137 -23 -78 -167 -138 -278 -114 -57 12 -144 50 -144 63 0 4 -7 14 -15 22 -9
10 -16 43 -19 91 -5 66 -3 80 17 110 54 83 207 116 331 72z m-1789 4 c151 -16
185 -48 185 -175 0 -88 -15 -122 -65 -149 -64 -35 -340 -51 -365 -21 -8 10
-12 63 -12 172 0 139 3 159 18 170 21 15 112 17 239 3z m894 0 c77 -11 111
-37 111 -86 0 -46 -9 -64 -39 -76 l-26 -10 26 -22 c25 -22 37 -58 42 -131 l2
-30 -66 -3 -66 -3 -17 35 c-9 19 -16 45 -16 58 0 31 -18 48 -51 48 -51 0 -59
-8 -53 -54 10 -67 -6 -86 -71 -86 -29 0 -57 5 -61 11 -9 15 -9 333 0 348 9 14
193 15 285 1z m411 -5 c60 -7 109 -35 117 -64 10 -39 -8 -56 -64 -59 -44 -3
-52 0 -67 23 -13 20 -24 25 -59 25 -37 0 -45 -4 -60 -29 -22 -37 -22 -114 -1
-146 21 -33 91 -36 119 -5 13 14 31 20 62 20 79 0 96 -24 54 -74 -65 -76 -296
-76 -362 1 -22 26 -40 120 -33 173 10 74 70 127 158 140 28 4 60 6 71 4 11 -1
40 -5 65 -9z m-732 -32 c4 -39 -4 -42 -133 -46 -83 -2 -90 -4 -90 -22 0 -18 8
-20 89 -23 50 -2 96 -8 103 -14 8 -6 13 -25 11 -42 l-3 -31 -80 -3 c-106 -3
-125 -8 -125 -32 0 -22 3 -22 111 -20 100 2 119 -5 119 -46 0 -23 -6 -37 -19
-44 -28 -14 -328 -13 -337 1 -5 9 -9 285 -5 347 1 10 40 12 179 10 l177 -3 3
-32z m482 -412 c0 -45 9 -51 80 -51 60 0 69 -3 75 -20 10 -33 -3 -40 -75 -40
-81 0 -80 1 -80 -115 0 -118 -3 -115 96 -115 l84 0 0 110 c0 170 21 190 202
190 99 0 118 -3 153 -23 l40 -23 -3 -79 c-2 -44 -5 -82 -8 -85 -3 -3 -67 -6
-142 -7 -75 -2 -141 -3 -145 -3 -5 0 -7 -17 -5 -37 l3 -38 153 -3 c110 -2 153
-6 154 -15 1 -6 5 58 8 143 l5 155 47 0 c25 0 49 3 54 8 12 12 109 8 128 -6
12 -9 17 -23 14 -42 l-3 -30 -70 0 c-38 0 -76 -4 -84 -9 -10 -7 -12 -36 -10
-135 l4 -126 -221 -3 -222 -3 -21 27 -20 26 -12 -26 c-12 -26 -14 -26 -120
-26 l-107 0 -21 34 c-18 28 -21 49 -21 139 0 96 -2 107 -20 117 -11 6 -20 17
-20 24 0 7 9 21 20 31 11 10 20 28 20 40 0 30 7 35 52 35 31 0 38 -4 38 -19z
m-985 -51 c21 -8 26 -16 23 -36 l-3 -27 -125 -1 -125 -1 0 -110 0 -110 128 -3
127 -3 0 -29 0 -30 -148 0 c-172 0 -183 5 -201 88 -10 47 -2 187 14 224 7 18
44 35 90 41 64 8 195 7 220 -3z m384 -4 c44 -23 61 -58 61 -125 0 -37 -5 -63
-12 -68 -7 -4 -78 -10 -158 -13 l-145 -5 4 -30 c1 -16 8 -33 15 -37 6 -4 73
-8 148 -8 76 0 139 -4 143 -10 3 -5 -2 -18 -12 -30 -16 -19 -28 -20 -173 -20
-202 1 -202 1 -208 135 -6 138 2 179 41 204 28 18 48 21 150 21 84 0 126 -4
146 -14z m148 3 c9 -9 20 -9 42 1 43 17 196 9 239 -13 l32 -18 2 -144 c0 -80
1 -151 2 -157 1 -9 -14 -13 -44 -13 l-45 0 4 121 c4 167 6 165 -117 162 l-97
-3 -3 -143 -3 -143 -41 3 -41 3 0 169 c0 133 3 170 14 177 19 12 43 11 56 -2z"/>
<path d="M2590 1142 c-16 -13 -24 -32 -27 -68 -9 -91 29 -132 107 -119 29 5
40 13 53 41 21 44 21 74 1 118 -24 49 -91 63 -134 28z"/>
<path d="M867 1154 c-4 -4 -7 -49 -7 -101 0 -67 3 -93 13 -94 36 -3 85 5 108
17 49 25 49 133 0 158 -33 17 -104 29 -114 20z"/>
<path d="M1738 1153 c-23 -6 -24 -49 -2 -57 20 -8 93 4 100 16 14 23 -54 51
-98 41z"/>
<path d="M2395 670 l-90 -5 0 -35 0 -35 101 -3 c110 -3 117 0 107 50 -6 33 -9
34 -118 28z"/>
<path d="M1180 644 c-18 -45 0 -54 110 -54 105 0 112 4 103 53 l-5 27 -99 0
c-98 0 -100 0 -109 -26z"/>
</g>
</svg>
