<svg width="370" height="50" viewBox="0 0 370 50" version="1.1" xmlns="http://www.w3.org/2000/svg"><title>Group 21</title><defs><linearGradient x1="47.574%" y1="1.933%" x2="47.574%" y2="103.032%" id="a"><stop stop-color="#C0C1C0" offset="0%"/><stop stop-color="#E5E5E4" offset="100%"/></linearGradient><linearGradient x1="41.413%" y1="5.061%" x2="41.413%" y2="102.692%" id="b"><stop stop-color="#C0C1C0" offset="0%"/><stop stop-color="#E5E5E4" offset="100%"/></linearGradient><linearGradient x1="45.539%" y1=".643%" x2="45.539%" y2="103.287%" id="c"><stop stop-color="#D7D8D7" offset="0%"/><stop stop-color="#F3F3F2" offset="100%"/></linearGradient><linearGradient x1="48.416%" y1="9.668%" x2="48.416%" y2="106.473%" id="d"><stop stop-color="#B5B6B4" offset="0%"/><stop stop-color="#CCCDCC" offset="100%"/></linearGradient><linearGradient x1="49.625%" y1="8.519%" x2="49.625%" y2="103.216%" id="e"><stop stop-color="#D7D8D7" offset="0%"/><stop stop-color="#F3F3F2" offset="100%"/></linearGradient><linearGradient x1="42.316%" y1="5.079%" x2="42.316%" y2="106.791%" id="f"><stop stop-color="#C0C1C0" offset="0%"/><stop stop-color="#E5E5E4" offset="100%"/></linearGradient><linearGradient x1="44.185%" y1="1.511%" x2="44.185%" y2="105.678%" id="g"><stop stop-color="#D7D8D7" offset="0%"/><stop stop-color="#F3F3F2" offset="100%"/></linearGradient><linearGradient x1="48.986%" y1=".631%" x2="48.986%" y2="103.283%" id="h"><stop stop-color="#D7D8D7" offset="0%"/><stop stop-color="#F3F3F2" offset="100%"/></linearGradient><linearGradient x1="43.306%" y1="24.421%" x2="43.306%" y2="120.115%" id="i"><stop stop-color="#B5B6B4" offset="0%"/><stop stop-color="#CCCDCC" offset="100%"/></linearGradient></defs><g stroke="none" stroke-width="1" fill="none" fill-rule="evenodd"><path fill="#FFF" d="M31.989.98l.114.232.069.316.029.284-.04.227-.097.286-15.893 27.707-.168.248-.176.208-.211.136-.034.019-.112.061-.215.083-.15.037-.117.024H4.145l-.135-.017-.174-.039-.16-.057-.141-.067-.036-.02-.164-.11-.105-.089-.091-.095-.071-.082-.076-.103-.061-.105L.37 25.605l-.154-.287-.075-.218-.043-.243-.003-.139.009-.097.011-.1.059-.273.166-.367L13.495.976l.038-.07.05-.071.055-.075.058-.065.094-.094.098-.082.118-.084.054-.034V.397l.247-.112.251-.067.149-.024h16.029l.313.037.182.077.28.153.227.184.133.153zM46.481 40.043l-.257-.017-.306-.098-.26-.116-.175-.147-.198-.229-15.913-27.695-.129-.271-.092-.257-.01-.252v-.038l.004-.129.035-.229.044-.149.037-.113.077-.135 5.344-9.31.082-.109.121-.131.13-.112.128-.089.035-.021.176-.087.129-.049.127-.031.106-.022.128-.013.119-.001 5.123-.001.323.009.226.044.23.084.122.067.078.057.081.06.206.188.233.327 13.146 22.909.041.069.036.079.036.085.029.083.033.13.022.125.014.145.002.064.003.003-.026.27-.069.252-.053.142-8.016 13.962-.188.252-.156.122-.272.165-.273.106-.197.04zM39.323 32.569l.032.019.109.068.178.143.108.114.079.09.077.133 5.345 9.31.052.126.053.17.031.171.013.155.001.04-.014.199-.023.135-.036.127-.034.104-.053.117-.059.105-2.56 4.461-.17.277-.15.175-.187.158-.119.073-.087.041-.093.04-.265.085-.397.039-26.302-.004h-.08l-.086-.008-.092-.011-.085-.016-.127-.035-.12-.044-.131-.061-.057-.03-.002-.003-.222-.154-.182-.185-.096-.119-8.014-13.96-.124-.291-.025-.197-.008-.32.044-.291.065-.191.1-.194.142-.214.239-.217.229-.168.214-.079.296-.072 31.805.001.299.023.267.052z"/><path fill="url(#a)" d="M31.987 1.982l-4.271 2.479.03.096.008.092-.024.128-.059.108-13.609 23.706-.023.036-.037.045-.055.045v.002l1.644 2.862h.094l.143-.092.174-.21.169-.247L32.065 3.324l.096-.286.041-.226-.03-.284-.069-.316-.114-.23z" transform="translate(0 -1)"/><path fill="url(#b)" d="M52.6 25.717l-.005.065-.015.058-.041.085-5.679 9.898-.069.12-.091.075-.112.046-.103.016v4.962l.212-.012.197-.038.273-.107.272-.166.156-.121.188-.253 8.015-13.961.054-.142.068-.251.025-.246v-.027l-2.229-.001z" transform="translate(0 -1)"/><path fill="url(#c)" d="M41.985 1.4l-1.677 2.918.07.048.064.077.047.081 12.055 20.992.03.076.014.079.004.024h3.352l-.002-.041-.013-.146-.023-.126-.033-.129-.029-.083-.036-.086-.036-.078-.041-.069L42.585 2.028l-.233-.328-.206-.187-.081-.061-.077-.052z" transform="translate(0 -1)"/><path fill="#F2F2F1" d="M36.855 3.316l.029-.016.034-.013.048-.01.065-.008 3.092.002.053.005.052.01.048.016.033.017L41.987.395l-.122-.067-.23-.084-.225-.043-.323-.009-5.122.001-.12.001-.127.014-.107.02-.127.032-.13.048-.176.087z"/><path fill="#CBCCCB" d="M15.746 46.123l-1.674 2.908-.221-.153-.183-.187-.095-.118-8.014-13.96-.124-.29-.026-.198-.008-.32.044-.29.066-.192.097-.194 4.273 2.48-.04.102-.017.122.02.117.07.12 5.682 9.896.052.08.042.043z"/><path fill="url(#d)" d="M40.27 47.141l-.027.012-.098.019-.094-.002-24.104.004-.08-.008-.059-.025h-.072l-1.662 2.894.057.028.131.061.12.045.128.035.084.017.085.011h26.599l.273-.028.265-.085.092-.041.084-.04v-.008l-1.66-2.889z" transform="translate(0 -1)"/><path fill="#F2F2F1" d="M9.883 35.612L5.61 33.131l.142-.215.238-.219.23-.167.214-.079.295-.07h31.807l.297.023.268.052.222.113-1.673 2.913-.064-.023-.055-.012-.043-.007-27.216-.002-.124.003-.122.043-.076.054z"/><path fill="url(#e)" d="M39.298 33.575L37.61 36.47l.109.05.08.086.094.153 4.084 7.114.039.077.023.072.009.087h3.353l-.001-.041-.013-.156-.031-.169-.054-.171-.051-.126-5.345-9.309-.077-.135-.079-.089-.108-.113-.178-.146-.109-.068-.02-.011z" transform="translate(0 -1)"/><path fill="url(#f)" d="M42.045 44.149l-.005.029-.014.047-.026.059-1.549 2.692-.028.045-.035.041-.04.034-.029.019 1.674 2.918h.013l.109-.068.187-.157.15-.175.17-.278 2.56-4.46.059-.105.052-.118.035-.103.036-.126.023-.137.011-.157z" transform="translate(0 -1)"/><path fill="#F2F2F1" d="M15.73 3.312L14.06.396l.247-.112.25-.067.15-.023h16.03l.312.037.184.075.278.155.229.184.13.152.12.183-4.272 2.48-.068-.085-.096-.075-.11-.042h-.14l-11.362.001-.094.007-.06.014z"/><path fill="#CBCCCB" d="M46.48 35.08v4.963l-.256-.017-.306-.099-.26-.117-.175-.146-.197-.229-15.914-27.694-.13-.27-.091-.259-.01-.252h3.33l.018.071.02.054.02.037 13.608 23.706.065.107.097.085.084.04z"/><path fill="url(#g)" d="M35.175 1.397l-.032.02-.128.089-.131.112-.12.13-.081.109-5.346 9.31-.077.135-.037.114-.044.149-.034.23-.004.128v.008h3.338l.009-.049.026-.115.09-.157 4.084-7.115.045-.07.051-.059.069-.049v-.002l-1.675-2.918z" transform="translate(0 -1)"/><path fill="url(#h)" d="M14.055 1.403l-.048.032-.119.084-.098.082-.095.095-.057.063-.055.076-.05.071-.039.069L.34 24.881l-.165.368-.06.272-.011.1-.005.075h3.352l.006-.062.034-.095.046-.081L15.588 4.462l.045-.064.065-.052.031-.025v-.012l-1.668-2.906z" transform="translate(0 -1)"/><path fill="url(#i)" d="M13.948 28.722l-.053.036-.134.025H5.415l-.086-.003-.075-.016-.078-.036L3.5 31.646v.003l.034.018.141.067.161.058.174.04.135.017 10.688-.001h.156l.116-.025.149-.036.216-.085.112-.059.034-.019-1.667-2.902z" transform="translate(0 -1)"/><path fill="#CBCCCB" d="M5.176 27.727l-.029-.018-.029-.023-.032-.036-.038-.053-1.545-2.693-.022-.049-.019-.051-.009-.05-.002-.037H.095l.003.141.043.241.075.219.154.286 2.561 4.461.061.102.075.105.072.083.091.094.106.089.164.11z"/><path d="M308.439 18.79v5.87h11.489v3.236h-11.559v16.446c0 .613.066 1.644 1.489 1.661l8.667-.003 2.545-.449-.459 3.665h-11.724c-4.3.006-5.709-1.901-5.714-6.541v-14.74h-3.653v-3.237h3.64v-4.982l5.279-.926zM352.183 24.715h4.777c.032.395.155 1.777.187 2.202h.101c.57-1.73 1.524-2.138 2.75-2.22l9.93.005-.233 4.508-5.82-.604h-4.64c-1.276 0-1.418.622-1.418 1.658V46.58l.447 2.634h-6.08c.144-.873.448-2.353.448-2.544V27.268l-.449-2.553zM270.443 24.7h5.401v1.8c0 .002.1 0 .1 0 .266-.361.607-.911 1.019-1.216.574-.426.94-.556 1.446-.588h13.932c3.482 0 5.612 1.364 5.612 4.572v17.236l.603 2.71h-6.321c.145-.72.325-1.481.374-2.248.094-1.303.228-3.017.228-3.21V30.169c0-1.246-.665-2.251-1.811-2.251h-13.531c-1.306 0-1.496.622-1.496 1.658v16.929l.525 2.712h-6.082c.146-.875.449-2.353.449-2.546V27.268l-.448-2.568zM245.962 35.638V30.54c0-2.116.4-2.621 2.154-2.621h12.514c1.755 0 2.384.505 2.384 2.621v5.1h-17.052zm16.365-10.955c3.427 0 5.754 1.571 5.754 4.866v9.31h-22.113v4.994c.002.99-.053 2.15 1.489 2.15l18.144-.002 2.622-.45-.689 3.665h-21.893c-2.256 0-4.776-1.505-4.776-5.775V30.39c0-2.53 1.494-5.455 4.993-5.704l16.469-.002zM327.738 35.654v-5.126c0-2.117.401-2.622 2.155-2.622h12.513c1.755 0 2.385.505 2.385 2.622v5.126h-17.053zm16.365-10.967c3.427 0 5.754 1.567 5.754 4.861v9.31h-22.113v4.996c.002.988-.052 2.15 1.49 2.15L347.377 46l2.623-.448-.69 3.664h-21.893c-2.255 0-4.775-1.505-4.775-5.774V30.389c0-2.53 1.493-5.455 4.991-5.704l16.47.002zM238.716 24.673l.227 3.682c-.868-.143-1.707-.297-2.543-.45l-15.245-.011c-1.3.003-1.56.605-1.56 1.593v14.852c.008.749.063 1.647 1.483 1.647l15.78.006 2.622-.444-.537 3.667h-19.682c-2.964 0-4.8-2.345-4.8-5.777V30.311c0-4.529 2.384-5.638 5.028-5.638h19.227zM148.72 42.896s1.438 6.327 1.438 6.31h-9.678c-.01.017-.558-3.472-.879-5.154-.505-2.955-.623-4.575-5.13-4.575l-3.315.002v9.727h-8.84V24.648h14.762c5.39 0 12.373 0 12.373 6.326 0 4.086-3.037 5.25-6.949 5.873 4.629.382 5.686 2.522 6.218 6.05zm-17.564-7.84v-4.49c0-.624.5-1.113 1.135-1.157h2.312c2.828 0 6.003-.073 6.003 2.824 0 2.517-3.175 2.823-6.003 2.823h-3.447zM72.782 29.409l.002 13.775c0 .694.611 1.257 1.414 1.26h2.029c4.497 0 8.747-1.611 8.747-7.517 0-6.08-4.25-7.518-8.747-7.518h-3.445zm-8.688-4.761H76.68c10.233 0 16.959 1.52 16.959 12.279 0 10.586-6.726 12.28-16.96 12.28H64.095V24.648zM201.726 36.97c0-4.629-1.162-8.167-6.8-8.167s-6.8 3.538-6.8 8.168c0 4.709 1.162 7.961 6.8 7.961s6.8-3.252 6.8-7.961m-6.8 12.745c-9.908 0-15.504-3.741-15.504-12.848 0-9.027 5.596-12.847 15.505-12.847 9.908 0 15.504 3.82 15.504 12.847 0 9.107-5.596 12.848-15.504 12.848M119.924 49.197l-24.086.001V24.656h24.086v4.794l-15.45-.022v5.063l14.303.008v4.756l-14.302-.002v4.034c.003.638.504 1.127 1.14 1.17l14.31.002v4.738zM169.845 41.688h8.642v1.019c-.148 5.25-7.354 7.194-13.746 7.194-8.985 0-14.228-2.37-14.228-12.823 0-9.218 5.243-12.688 14.228-12.755 6.513 0 13.747 1.863 13.747 7.02l-.001 1.009h-8.642v-1.01c-.012-1.484-2.49-2.258-5.104-2.258-4.043 0-5.41 3.276-5.43 8.265-.018 4.1 1.387 7.79 5.43 7.79 2.646 0 5.098-.917 5.098-2.566l.006-.885z" fill="#FFF"/></g></svg>